<svg width="24" height="24" viewBox="0 0 24 24" fill="none" xmlns="http://www.w3.org/2000/svg">
<path d="M12.0001 4.5V7.5H16.0001C15.6668 8.75 14.9168 10.0833 12.0001 10.0833C9.08341 10.0833 6.91675 7.58333 6.91675 4.5C6.91675 1.41667 9.08341 0 12.0001 0C14.1668 0 15.6668 0.916667 16.5834 1.75L18.7501 0C17.0834 0 14.5001 0 12.0001 0C7.50008 0 4.00008 3.58333 4.00008 7.5C4.00008 11.4167 7.50008 15 12.0001 15C16.5001 15 18.0001 12.5 18.0001 10.0833H12.0001V4.5Z" fill="#EA4335"/>
<path d="M22.9167 12C22.9167 11.0833 22.8334 10.0833 22.6667 9.08333H12.0001V15H17.8334C17.5834 16.3333 16.8334 17.5 15.8334 18.25L18.0001 20C19.8334 18.3333 22.9167 15.0833 22.9167 12Z" fill="#4285F4"/>
<path d="M12.0001 22.5C9.00008 22.5 6.41675 21.3333 4.58341 19.5L6.75008 17.75C7.91675 18.9167 9.83341 19.5 12.0001 19.5C13.8334 19.5 15.3334 18.8333 16.5834 17.75L18.7501 19.5C17.5001 20.8333 14.9168 22.5 12.0001 22.5Z" fill="#34A853"/>
<path d="M4.00008 7.5C4.00008 6.08333 4.50008 4.83333 5.33341 3.83333L7.50008 2.08333C5.66675 3.75 4.00008 5.75 4.00008 7.5Z" fill="#FBBC04"/>
</svg> 